<?xml version="1.0" encoding="iso-8859-1"?>
<!-- Generator: Adobe Illustrator 19.0.0, SVG Export Plug-In . SVG Version: 6.00 Build 0)  -->
<svg version="1.1" id="Capa_1" xmlns="http://www.w3.org/2000/svg" xmlns:xlink="http://www.w3.org/1999/xlink" x="0px" y="0px"
	 viewBox="0 0 512 512" style="enable-background:new 0 0 512 512;" xml:space="preserve">
<rect x="31.406" y="120.511" style="fill:#FDCA74;" width="449.19" height="364.138"/>
<g>
	<polygon style="fill:#FA9EB0;" points="206.663,5.264 107.989,5.264 58.651,67.856 107.989,120.507 157.326,153.828 
		206.663,120.507 256,79.546 	"/>
	<polygon style="fill:#FA9EB0;" points="404.011,5.264 305.337,5.264 256,79.546 305.337,120.507 354.674,153.828 404.011,120.507 
		453.349,67.856 	"/>
</g>
<polygon style="fill:#80E2FF;" points="206.663,5.264 206.663,120.507 256,153.828 305.337,120.507 305.337,5.264 "/>
<path style="fill:#E6B25B;" d="M31.406,213.285c8.511,3.082,17.684,4.77,27.246,4.77c18.588,0,35.718-6.352,49.337-17
	c13.619,10.649,30.749,17,49.337,17s35.718-6.352,49.337-17c13.619,10.649,30.749,17,49.337,17c18.594,0,35.716-6.375,49.337-17.03
	c13.621,10.655,30.744,17.03,49.337,17.03c18.588,0,35.718-6.352,49.337-17c13.619,10.649,30.749,17,49.337,17
	c9.561,0,18.735-1.687,27.245-4.77v-92.777H31.406V213.285z"/>
<path style="fill:#ED6883;" d="M107.989,120.507v17.305c0,27.248,22.089,49.337,49.337,49.337l0,0
	c27.248,0,49.337-22.089,49.337-49.337v-17.305C206.664,120.507,107.989,120.507,107.989,120.507z"/>
<path style="fill:#80E2FF;" d="M27.857,5.264c-10.241,0-18.542,8.302-18.542,18.543v96.7l49.337,33.321l49.337-33.321V5.264H27.857z
	"/>
<path style="fill:#ED6883;" d="M404.011,120.507v17.305c0,27.248-22.089,49.337-49.337,49.337l0,0
	c-27.248,0-49.337-22.089-49.337-49.337v-17.305C305.336,120.507,404.011,120.507,404.011,120.507z"/>
<path style="fill:#80E2FF;" d="M484.143,5.264h-80.132v115.242l49.337,33.321l49.337-33.321V23.807
	C502.685,13.566,494.384,5.264,484.143,5.264z"/>
<path style="fill:#ED6883;" d="M207.304,238.327H102.192c-11.846,0-21.449,9.603-21.449,21.449V483.54h148.011V259.777
	C228.754,247.931,219.15,238.327,207.304,238.327z"/>
<rect x="113.876" y="271.463" style="fill:#FA9EB0;" width="81.735" height="212.073"/>
<path style="fill:#80E2FF;" d="M402.762,238.327H301.113c-10.038,0-18.176,8.137-18.176,18.176v86.021h138.001v-86.021
	C420.938,246.465,412.8,238.327,402.762,238.327z"/>
<path style="fill:#55C2E3;" d="M332.018,238.327h-30.905c-10.038,0-18.176,8.137-18.176,18.177v86.021h30.905v-86.021
	C313.842,246.465,321.98,238.327,332.018,238.327z"/>
<path style="fill:#FA9EB0;" d="M420.938,324.115H282.936c-9.969,0-18.051,8.082-18.051,18.051v18.768h174.104v-18.768
	C438.989,332.196,430.907,324.115,420.938,324.115z"/>
<path style="fill:#ED6883;" d="M313.842,324.115h-30.905c-9.969,0-18.051,8.082-18.051,18.051v18.768h30.905v-18.768
	C295.791,332.196,303.872,324.115,313.842,324.115z"/>
<g>
	<path style="fill:#55C2E3;" d="M206.663,120.507v17.305c0,27.248,22.089,49.337,49.337,49.337l0,0
		c27.248,0,49.337-22.089,49.337-49.337v-17.305C305.337,120.507,206.663,120.507,206.663,120.507z"/>
	<path style="fill:#55C2E3;" d="M9.315,120.507v17.305c0,27.248,22.089,49.337,49.337,49.337l0,0
		c27.248,0,49.337-22.089,49.337-49.337v-17.305C107.99,120.507,9.315,120.507,9.315,120.507z"/>
	<path style="fill:#55C2E3;" d="M502.685,120.507v17.305c0,27.248-22.089,49.337-49.337,49.337l0,0
		c-27.248,0-49.337-22.089-49.337-49.337v-17.305C404.01,120.507,502.685,120.507,502.685,120.507z"/>
</g>
<path style="fill:#80E2FF;" d="M480.594,460.344H31.406C14.061,460.344,0,474.405,0,491.75v14.986h512V491.75
	C512,474.405,497.939,460.344,480.594,460.344z"/>
<path style="fill:#55C2E3;" d="M62.312,460.344H31.406C14.061,460.344,0,474.405,0,491.75v14.986h30.905V491.75
	C30.905,474.405,44.966,460.344,62.312,460.344z"/>
<g>
</g>
<g>
</g>
<g>
</g>
<g>
</g>
<g>
</g>
<g>
</g>
<g>
</g>
<g>
</g>
<g>
</g>
<g>
</g>
<g>
</g>
<g>
</g>
<g>
</g>
<g>
</g>
<g>
</g>
</svg>
