<?xml version="1.0" encoding="iso-8859-1"?>
<!-- Generator: Adobe Illustrator 19.0.0, SVG Export Plug-In . SVG Version: 6.00 Build 0)  -->
<svg version="1.1" id="Capa_1" xmlns="http://www.w3.org/2000/svg" xmlns:xlink="http://www.w3.org/1999/xlink" x="0px" y="0px"
	 viewBox="0 0 512 512" style="enable-background:new 0 0 512 512;" xml:space="preserve">
<g>
	<path style="fill:#9798BC;" d="M256,384.272c4.687,0,9.047,1.389,12.691,3.767l12.551-59.364h-50.484l12.551,59.364
		C246.955,385.661,251.313,384.272,256,384.272z"/>
	<path style="fill:#9798BC;" d="M270.074,425.554c-3.901,2.972-8.778,4.743-14.074,4.743c-5.294,0-10.17-1.768-14.07-4.741
		l-12.5,60.999h53.145L270.074,425.554z"/>
</g>
<path style="fill:#F8D5AB;" d="M393.118,138.563V33.1H266.737c-2.879,0-5.214,2.32-5.214,5.182v34.546
	c0,7.617-6.238,13.818-13.904,13.818c-7.668,0-13.905-6.199-13.905-13.818V38.283c0-2.862-2.334-5.182-5.214-5.182h-38.237
	c-2.88,0-5.214,2.32-5.214,5.182c0,7.619-6.238,13.82-13.905,13.82c-7.666,0-13.904-6.199-13.904-13.82
	c0-2.862-2.335-5.182-5.214-5.182s-5.215,2.32-5.215,5.182v34.546c0,7.617-6.238,13.818-13.905,13.818
	c-7.732,0-14.024-6.199-14.024-13.818v65.736h274.237V138.563z"/>
<path style="fill:#FF96B1;" d="M132.905,86.646c7.667,0,13.905-6.199,13.905-13.818V38.283c0-2.862,2.336-5.182,5.215-5.182
	s5.214,2.32,5.214,5.182c0,7.619,6.238,13.82,13.904,13.82c7.667,0,13.905-6.199,13.905-13.82c0-2.862,2.335-5.182,5.214-5.182
	H228.5c2.879,0,5.214,2.32,5.214,5.182v34.546c0,7.617,6.238,13.818,13.905,13.818c7.666,0,13.904-6.199,13.904-13.818V38.283
	c0-2.862,2.335-5.182,5.214-5.182h126.382V13.604c0-6.809-5.606-12.379-12.457-12.379H131.339c-6.852,0-12.458,5.571-12.458,12.379
	v59.224C118.882,80.446,125.173,86.646,132.905,86.646z"/>
<path style="opacity:0.1;enable-background:new    ;" d="M137.968,138.563V13.604c0-6.809,5.606-12.379,12.458-12.379h-19.087
	c-6.852,0-12.458,5.571-12.458,12.379v124.959H137.968z"/>
<path style="fill:#FF96B1;" d="M445.354,270.502V144.83c0-6.808-5.606-12.379-12.457-12.379H79.103
	c-6.852,0-12.458,5.571-12.458,12.379v125.671h378.71V270.502z"/>
<path style="opacity:0.1;enable-background:new    ;" d="M94.645,270.502V144.83c0-6.808,5.606-12.379,12.458-12.379h-28
	c-6.852,0-12.458,5.571-12.458,12.379v125.671h28V270.502z"/>
<path style="fill:#A8E5C6;" d="M41.426,270.502c-1.304,0-2.361-1.05-2.361-2.344v-6.01c0-8.86,4.865-16.993,12.697-21.24
	c0.887-0.563,9.771-6.349,13.158-14.46c0.604-1.449,2.015-2.385,3.594-2.385c1.578,0,2.989,0.936,3.593,2.385
	c3.399,8.135,12.276,13.902,13.156,14.46c7.835,4.247,12.699,12.378,12.699,21.241v6.01c0,1.295-1.057,2.344-2.36,2.344H41.426z"/>
<path style="fill:#CDF0DE;" d="M94.993,270.502c-1.304,0-2.36-1.05-2.36-2.344v-6.01c0-8.86,4.864-16.993,12.697-21.24
	c0.888-0.563,9.771-6.349,13.158-14.46c0.603-1.449,2.014-2.385,3.594-2.385c1.578,0,2.99,0.936,3.593,2.385
	c3.398,8.135,12.276,13.902,13.155,14.46c7.835,4.247,12.699,12.378,12.699,21.241v6.01c0,1.295-1.056,2.344-2.36,2.344H94.993z"/>
<path style="fill:#A8E5C6;" d="M148.561,270.502c-1.304,0-2.361-1.05-2.361-2.344v-6.01c0-8.86,4.865-16.993,12.698-21.24
	c0.887-0.563,9.77-6.349,13.158-14.46c0.604-1.449,2.015-2.385,3.594-2.385s2.989,0.936,3.593,2.385
	c3.398,8.135,12.276,13.902,13.156,14.46c7.836,4.247,12.699,12.378,12.699,21.241v6.01c0,1.295-1.057,2.344-2.36,2.344H148.561z"/>
<path style="fill:#CDF0DE;" d="M202.128,270.502c-1.303,0-2.361-1.05-2.361-2.344v-6.01c0-8.86,4.864-16.993,12.697-21.24
	c0.887-0.563,9.77-6.349,13.158-14.46c0.603-1.449,2.014-2.385,3.593-2.385c1.578,0,2.99,0.936,3.594,2.385
	c3.398,8.135,12.276,13.902,13.155,14.46c7.835,4.247,12.699,12.378,12.699,21.241v6.01c0,1.295-1.057,2.344-2.361,2.344H202.128z"
	/>
<path style="fill:#A8E5C6;" d="M255.696,270.502c-1.304,0-2.361-1.05-2.361-2.344v-6.01c0-8.86,4.865-16.993,12.697-21.24
	c0.887-0.563,9.771-6.349,13.158-14.46c0.604-1.449,2.015-2.385,3.594-2.385c1.578,0,2.989,0.936,3.593,2.385
	c3.398,8.135,12.276,13.902,13.156,14.46c7.835,4.247,12.699,12.378,12.699,21.241v6.01c0,1.295-1.057,2.344-2.361,2.344H255.696z"
	/>
<path style="fill:#CDF0DE;" d="M309.263,270.502c-1.304,0-2.36-1.05-2.36-2.344v-6.01c0-8.86,4.864-16.993,12.697-21.24
	c0.888-0.563,9.771-6.349,13.158-14.46c0.603-1.449,2.014-2.385,3.594-2.385c1.578,0,2.989,0.936,3.593,2.385
	c3.399,8.135,12.276,13.902,13.156,14.46c7.835,4.247,12.699,12.378,12.699,21.241v6.01c0,1.295-1.057,2.344-2.361,2.344H309.263z"
	/>
<path style="fill:#A8E5C6;" d="M362.831,270.502c-1.304,0-2.361-1.05-2.361-2.344v-6.01c0-8.86,4.864-16.993,12.697-21.24
	c0.887-0.563,9.771-6.349,13.158-14.46c0.603-1.449,2.014-2.385,3.594-2.385c1.578,0,2.989,0.936,3.593,2.385
	c3.398,8.135,12.275,13.902,13.155,14.46c7.836,4.247,12.699,12.378,12.699,21.241v6.01c0,1.295-1.057,2.344-2.36,2.344H362.831z"/>
<path style="fill:#CDF0DE;" d="M416.398,270.502c-1.304,0-2.361-1.05-2.361-2.344v-6.01c0-8.86,4.864-16.993,12.697-21.24
	c0.887-0.563,9.77-6.349,13.158-14.46c0.603-1.449,2.014-2.385,3.593-2.385c1.578,0,2.989,0.936,3.594,2.385
	c3.398,8.135,12.276,13.902,13.155,14.46c7.836,4.247,12.699,12.378,12.699,21.241v6.01c0,1.295-1.057,2.344-2.361,2.344H416.398z"
	/>
<path style="fill:#B2B4CE;" d="M163.394,296.855v36.699c0,2.819,2.307,5.125,5.126,5.125h174.961c2.819,0,5.126-2.306,5.126-5.125
	v-36.699H163.394z"/>
<path style="opacity:0.1;enable-background:new    ;" d="M191.409,333.553v-36.699h-28.015v36.699c0,2.819,2.307,5.125,5.126,5.125
	h28.015C193.716,338.68,191.409,336.373,191.409,333.553z"/>
<path style="fill:#CFCCD6;" d="M512,301.883c0,2.819-2.307,5.126-5.126,5.126H5.126c-2.819,0-5.126-2.307-5.126-5.126v-30.602
	c0-2.819,2.307-5.126,5.126-5.126h501.747c2.819,0,5.126,2.307,5.126,5.126V301.883z"/>
<path style="opacity:0.1;enable-background:new    ;" d="M40.298,301.883v-30.602c0-2.819,2.307-5.126,5.126-5.126H5.126
	c-2.819,0-5.126,2.307-5.126,5.126v30.602c0,2.819,2.307,5.126,5.126,5.126h40.298C42.605,307.009,40.298,304.702,40.298,301.883z"
	/>
<path style="fill:#B2B4CE;" d="M361.889,500.523c0,5.639-4.614,10.253-10.253,10.253H160.363c-5.639,0-10.253-4.614-10.253-10.253
	v-10.682c0-5.639,4.614-10.253,10.253-10.253h191.273c5.639,0,10.253,4.614,10.253,10.253V500.523z"/>
<path style="opacity:0.1;enable-background:new    ;" d="M183.657,500.523v-10.682c0-5.639,4.614-10.253,10.253-10.253h-33.546
	c-5.639,0-10.253,4.614-10.253,10.253v10.682c0,5.639,4.614,10.253,10.253,10.253h33.546
	C188.27,510.774,183.657,506.162,183.657,500.523z"/>
<ellipse style="fill:#B2B4CE;" cx="256" cy="407.282" rx="26.161" ry="25.995"/>
<g>
	<path style="fill:#FF7697;" d="M445.354,154.698H308.321c-4.122,0-7.464,3.341-7.464,7.464c0,4.123,3.342,7.464,7.464,7.464
		h137.033V154.698z"/>
	<path style="fill:#FF7697;" d="M445.354,185.029H308.321c-4.122,0-7.464,3.341-7.464,7.464s3.342,7.464,7.464,7.464h137.033
		V185.029z"/>
</g>
<g>
	<path style="fill:#FAE4C8;" d="M393.118,51.946h-51.076c-4.122,0-7.464,3.341-7.464,7.464s3.342,7.464,7.464,7.464h51.076V51.946z"
		/>
	<path style="fill:#FAE4C8;" d="M393.118,75.467h-51.076c-4.122,0-7.464,3.341-7.464,7.464c0,4.123,3.342,7.464,7.464,7.464h51.076
		V75.467z"/>
	<path style="fill:#FAE4C8;" d="M393.118,98.99h-51.076c-4.122,0-7.464,3.341-7.464,7.464c0,4.123,3.342,7.464,7.464,7.464h51.076
		V98.99z"/>
</g>
<g>
</g>
<g>
</g>
<g>
</g>
<g>
</g>
<g>
</g>
<g>
</g>
<g>
</g>
<g>
</g>
<g>
</g>
<g>
</g>
<g>
</g>
<g>
</g>
<g>
</g>
<g>
</g>
<g>
</g>
</svg>
