<svg viewBox="0 -14 512.00035 512" xmlns="http://www.w3.org/2000/svg"><path d="m44.730469 459.4375c9.964843 14.898438 26.554687 23.820312 44.304687 23.820312h333.929688c17.746094 0 34.34375-8.921874 44.304687-23.820312zm0 0" fill="#b7e9f9"/><path d="m66.792969 459.4375h-22.0625c9.964843 14.898438 26.558593 23.820312 44.304687 23.820312h22.066406c-17.75 0-34.34375-8.921874-44.308593-23.820312zm0 0" fill="#87cee9"/><path d="m272.808594 13.378906c-3.269532-2.746094-8.144532-2.324218-10.890625.941406-.605469.722657-2.640625 2.695313-5.214844 4.046876-3.59375-8.878907-7.355469-14.523438-7.65625-14.96875-2.390625-3.535157-7.195313-4.460938-10.730469-2.070313s-4.460937 7.195313-2.070312 10.730469c.074218.109375 4.703125 7.054687 8.117187 17.492187.042969.152344.09375.308594.144531.460938 1.929688 6.015625 3.4375 13.152343 3.4375 20.796875 0 4.265625 3.457032 7.726562 7.726563 7.726562 4.265625 0 7.726563-3.460937 7.726563-7.726562 0-6.238282-.804688-12.164063-2.023438-17.589844 7.089844-2.917969 11.699219-8.152344 12.375-8.953125 2.746094-3.265625 2.324219-8.140625-.941406-10.886719zm0 0" fill="#d3843d"/><path d="m436.863281 309.417969h-361.730469c-10.882812 0-19.707031 8.824219-19.707031 19.710937v80.410156h401.148438v-80.410156c0-10.886718-8.824219-19.710937-19.710938-19.710937zm0 0" fill="#ffd782"/><path d="m95.292969 309.417969h-20.160157c-10.882812 0-19.707031 8.824219-19.707031 19.710937v80.410156h20.15625v-80.410156c0-10.886718 8.824219-19.710937 19.710938-19.710937zm0 0" fill="#fdbd40"/><path d="m398.710938 209.300781h-285.421876c-10.886718 0-19.710937 8.820313-19.710937 19.707031v80.410157h324.84375v-80.410157c0-10.886718-8.824219-19.707031-19.710937-19.707031zm0 0" fill="#c65c38"/><path d="m133.894531 209.300781h-20.605469c-10.886718 0-19.710937 8.820313-19.710937 19.707031v80.410157h20.605469v-80.410157c0-10.886718 8.824218-19.707031 19.710937-19.707031zm0 0" fill="#9c2d20"/><path d="m354.050781 109.179688h-196.101562c-10.882813 0-19.710938 8.824218-19.710938 19.710937v80.410156h235.519531v-80.410156c0-10.886719-8.820312-19.710937-19.707031-19.710937zm0 0" fill="#d3843d"/><path d="m157.949219 109.179688c-10.882813 0-19.710938 8.824218-19.710938 19.710937v80.410156h20.605469v-80.410156c0-10.886719 8.824219-19.710937 19.710938-19.710937zm0 0" fill="#c65c38"/><path d="m93.578125 244.105469h324.84375v32.65625h-324.84375zm0 0" fill="#9c2d20"/><path d="m93.578125 244.105469h20.605469v32.65625h-20.605469zm0 0" fill="#8c271f"/><path d="m456.574219 329.128906c0-10.886718-8.824219-19.710937-19.710938-19.710937h-361.730469c-10.882812 0-19.707031 8.824219-19.707031 19.710937v45.253906c23.390625-3.074218 43.539063-16.363281 55.859375-35.257812 1.941406-2.980469 6.207032-2.972656 8.148438.007812 30.324218 46.507813 97.460937 48.140626 130.089844 3.476563 3.226562-4.417969 9.726562-4.417969 12.957031 0 31.773437 43.496094 96.511719 43.253906 127.980469-.40625 3.046874-4.230469 9.304687-4.253906 12.347656-.023437 12.441406 17.265624 31.65625 29.292968 53.765625 32.195312zm0 0" fill="#fdbd40"/><path d="m76.03125 329.128906c0-10.882812 8.824219-19.710937 19.707031-19.710937h-20.605469c-10.882812 0-19.707031 8.824219-19.707031 19.710937v45.253906c7.222657-.949218 14.132813-2.875 20.605469-5.636718zm0 0" fill="#f2aa2a"/><path d="m373.757812 128.886719c0-10.882813-8.820312-19.707031-19.707031-19.707031h-196.101562c-10.882813 0-19.710938 8.820312-19.710938 19.707031v40.832031c11.132813-3.476562 20.578125-10.753906 26.824219-20.332031 1.21875-1.871094 3.898438-1.867188 5.121094.003906 19.054687 29.226563 61.242187 30.25 81.746094 2.183594 2.027343-2.773438 6.113281-2.773438 8.140624 0 19.96875 27.335937 60.648438 27.179687 80.425782-.253907 1.914062-2.65625 5.84375-2.671874 7.757812-.015624 6.214844 8.628906 15.128906 15.171874 25.503906 18.410156zm0 0" fill="#c65c38"/><path d="m158.84375 128.886719c0-10.882813 8.824219-19.707031 19.710938-19.707031h-20.605469c-10.882813 0-19.707031 8.820312-19.707031 19.707031v40.832031c7.898437-2.46875 14.945312-6.859375 20.601562-12.617188zm0 0" fill="#9c2d20"/><path d="m285.1875 79.992188c0 16.121093-13.070312 29.1875-29.1875 29.1875-16.121094 0-29.1875-13.066407-29.1875-29.1875 0-16.117188 13.066406-29.183594 29.1875-29.183594 16.117188 0 29.1875 13.066406 29.1875 29.183594zm0 0" fill="#da1c4b"/><path d="m266.300781 52.683594c-3.203125-1.210938-6.671875-1.875-10.300781-1.875-16.117188 0-29.183594 13.066406-29.183594 29.183594 0 16.121093 13.066406 29.1875 29.183594 29.1875 3.628906 0 7.097656-.667969 10.300781-1.875-25.113281-9.484376-25.121093-45.136719 0-54.621094zm0 0" fill="#bf0443"/><path d="m481.71875 459.78125h-451.441406c-3.558594 0-6.882813-1.777344-8.878906-4.742188l-19.527344-29.003906c-4.835938-7.183594.269531-16.886718 8.878906-16.886718h490.5c8.613281 0 13.714844 9.703124 8.878906 16.886718l-19.527344 29.003906c-2 2.964844-5.324218 4.742188-8.882812 4.742188zm0 0" fill="#d7f7ff"/><path d="m42.003906 455.039062-19.53125-29.003906c-4.832031-7.183594.269532-16.886718 8.878906-16.886718h-20.601562c-8.609375 0-13.714844 9.703124-8.878906 16.886718l19.527344 29.003906c2 2.964844 5.324218 4.742188 8.878906 4.742188h20.605468c-3.554687 0-6.882812-1.777344-8.878906-4.742188zm0 0" fill="#b7e9f9"/></svg>