<svg height="512pt" viewBox="-14 0 512 512.0003" width="512pt" xmlns="http://www.w3.org/2000/svg"><path d="m327.632812 127.625c20.550782-97.902344-59.566406-121.878906-91.804687-127.519531-5.253906-.921875-9.410156 4.355469-7.351563 9.277343 7.277344 17.417969 14.765626 51.101563-26.242187 67.015626-33.535156 13.015624-35.574219 37.660156-33.785156 51.226562zm0 0" fill="#ff94d4"/><path d="m235.828125.105469c-4.242187-.742188-7.757813 2.550781-7.878906 6.433593 36.203125 12.433594 82.980469 43.609376 66.71875 121.085938h32.964843c20.550782-97.902344-59.566406-121.878906-91.804687-127.519531zm0 0" fill="#ff73c6"/><path d="m368.878906 183.585938h-254.183594v-36.511719c0-21.09375 17.824219-37.800781 38.875-36.433594l186.84375 12.136719c16.011719 1.039062 28.464844 14.328125 28.464844 30.371094zm0 0" fill="#ffafe2"/><path d="m340.414062 122.777344-16.589843-1.078125c7.464843 5.566406 12.261719 14.457031 12.261719 24.410156v37.476563h32.792968v-30.4375c0-16.042969-12.453125-29.332032-28.464844-30.371094zm0 0" fill="#ff94d4"/><path d="m418.609375 264.253906h-353.644531v-50.792968c0-29.351563 24.800781-52.59375 54.089844-50.691407l259.953124 16.882813c22.273438 1.449218 39.601563 19.9375 39.601563 42.257812zm0 0" fill="#ff94d4"/><path d="m379.007812 179.652344-12.988281-.84375c11.980469 7.515625 19.882813 20.824218 19.882813 35.890625v49.554687h32.707031v-42.34375c0-22.320312-17.328125-40.808594-39.601563-42.257812zm0 0" fill="#ff73c6"/><path d="m45.785156 277.226562-9.78125 27.878907 59.628906 202.34375h291.976563l59.628906-202.34375-9.785156-27.878907zm0 0" fill="#cc98e8"/><path d="m425.453125 285.75-15.453125 34.730469-55.097656 186.96875h32.707031l59.628906-202.34375-9.242187-19.355469zm0 0" fill="#bf80e2"/><path d="m474.230469 464.953125h-465.21875c-6.957031 0-11.28125 7.554687-7.757813 13.554687l9.304688 15.828126c6.429687 10.945312 18.175781 17.664062 30.867187 17.664062h400.390625c12.691406 0 24.4375-6.71875 30.867188-17.664062l9.304687-15.828126c3.523438-6-.800781-13.554687-7.757812-13.554687zm0 0" fill="#8ebac5"/><path d="m130.703125 302.363281c27.726563 0 27.726563 18.152344 55.453125 18.152344 27.730469 0 27.730469-18.152344 55.457031-18.152344 27.726563 0 27.726563 18.152344 55.453125 18.152344 27.726563 0 27.726563-18.152344 55.457032-18.152344 27.730468 0 27.730468 18.152344 55.460937 18.152344 20.929687 0 26.070313-10.339844 39.253906-15.410156l14.917969-50.625c3.027344-10.261719-4.664062-20.546875-15.363281-20.546875h-410.347657c-10.695312 0-18.386718 10.285156-15.363281 20.546875l14.917969 50.625c13.183594 5.074219 18.320312 15.410156 39.246094 15.410156 27.730468 0 27.730468-18.152344 55.457031-18.152344zm0 0" fill="#fef1da"/><path d="m446.792969 233.933594h-32.707031c10.699218 0 18.390624 10.285156 15.363281 20.546875l-19.449219 66c19.261719-.640625 24.488281-10.472657 37.238281-15.375l14.917969-50.625c3.027344-10.261719-4.664062-20.546875-15.363281-20.546875zm0 0" fill="#fde6bf"/></svg>