<svg viewBox="1 -62 511.99975 511" xmlns="http://www.w3.org/2000/svg"><path d="m440.664062 194.210938h-152.828124c-31.136719 0-56.609376 25.472656-56.609376 56.609374v2.285157h266.050782v-2.285157c-.003906-31.136718-25.476563-56.609374-56.613282-56.609374zm0 0" fill="#32b1cc"/><path d="m308.441406 194.210938h-20.605468c-31.136719 0-56.609376 25.472656-56.609376 56.609374v2.285157h20.601563v-2.285157c0-31.136718 25.476563-56.609374 56.613281-56.609374zm0 0" fill="#1695b7"/><path d="m440.664062 388.164062h-152.828124c-31.136719 0-56.609376-25.476562-56.609376-56.613281v-2.285156h266.050782v2.285156c-.003906 31.136719-25.476563 56.613281-56.613282 56.613281zm0 0" fill="#32b1cc"/><path d="m251.828125 329.265625h-20.601563v2.285156c0 31.136719 25.472657 56.613281 56.609376 56.613281h20.605468c-29.195312 0-56.613281-22.753906-56.613281-58.898437zm0 0" fill="#1695b7"/><path d="m229.828125 275.902344h268.84375v30.535156h-268.84375zm0 0" fill="#c65c38"/><path d="m229.828125 275.902344h268.84375v30.535156h-268.84375zm0 0" fill="#394d5c"/><path d="m229.828125 275.902344h22v30.535156h-22zm0 0" fill="#2b3f4c"/><path d="m500.066406 305.402344h-271.632812c-6.5625 0-11.933594 5.609375-11.933594 12.460937 0 6.851563 5.367188 12.460938 11.933594 12.460938h271.632812c6.5625 0 11.933594-5.605469 11.933594-12.460938 0-6.851562-5.371094-12.460937-11.933594-12.460937zm0 0" fill="#87cee9"/><path d="m500.066406 252.621094h-271.632812c-6.5625 0-11.933594 5.480468-11.933594 12.171875 0 6.699219 5.367188 12.175781 11.933594 12.175781h271.632812c6.5625 0 11.933594-5.480469 11.933594-12.175781 0-6.691407-5.371094-12.171875-11.933594-12.171875zm0 0" fill="#87cee9"/><path d="m241.527344 317.863281c0-6.851562 5.371094-12.460937 11.929687-12.460937h-25.023437c-6.5625 0-11.933594 5.609375-11.933594 12.460937 0 6.851563 5.371094 12.460938 11.933594 12.460938h25.023437c-6.558593 0-11.929687-5.609375-11.929687-12.460938zm0 0" fill="#32b1cc"/><path d="m241.527344 264.792969c0-6.695313 5.371094-12.171875 11.929687-12.171875h-25.023437c-6.5625 0-11.933594 5.480468-11.933594 12.171875 0 6.699219 5.371094 12.175781 11.933594 12.175781h25.023437c-6.558593 0-11.929687-5.476562-11.929687-12.175781zm0 0" fill="#32b1cc"/><path d="m440.664062.5h-152.828124c-31.136719 0-56.609376 25.476562-56.609376 56.613281v2.285157h266.050782v-2.285157c-.003906-31.136719-25.476563-56.613281-56.613282-56.613281zm0 0" fill="#fdbd40"/><path d="m308.441406.5h-20.605468c-31.136719 0-56.613282 25.476562-56.613282 56.613281v2.285157h20.605469v-2.285157c0-31.136719 25.476563-56.613281 56.613281-56.613281zm0 0" fill="#f2aa2a"/><path d="m440.664062 194.453125h-152.828124c-31.136719 0-56.609376-25.476563-56.609376-56.613281v-2.285156h266.050782v2.285156c-.003906 31.136718-25.476563 56.613281-56.613282 56.613281zm0 0" fill="#fdbd40"/><path d="m251.828125 135.554688h-20.601563v2.285156c0 31.136718 25.472657 56.613281 56.609376 56.613281h20.605468c-29.199218 0-56.613281-22.753906-56.613281-58.898437zm0 0" fill="#f2aa2a"/><path d="m229.828125 82.191406h268.84375v30.535156h-268.84375zm0 0" fill="#c65c38"/><path d="m229.828125 82.191406h268.84375v30.535156h-268.84375zm0 0" fill="#c65c38"/><path d="m229.828125 82.191406h22v30.535156h-22zm0 0" fill="#9c2d20"/><path d="m500.066406 111.691406h-271.632812c-6.5625 0-11.933594 5.609375-11.933594 12.460938 0 6.855468 5.367188 12.460937 11.933594 12.460937h271.632812c6.5625 0 11.933594-5.605469 11.933594-12.460937 0-6.851563-5.371094-12.460938-11.933594-12.460938zm0 0" fill="#ffd782"/><path d="m500.066406 58.910156h-271.632812c-6.5625 0-11.933594 5.480469-11.933594 12.175782 0 6.695312 5.367188 12.171874 11.933594 12.171874h271.632812c6.5625 0 11.933594-5.476562 11.933594-12.171874 0-6.695313-5.371094-12.175782-11.933594-12.175782zm0 0" fill="#ffd782"/><path d="m241.527344 124.152344c0-6.851563 5.371094-12.460938 11.929687-12.460938h-25.023437c-6.5625 0-11.933594 5.609375-11.933594 12.460938 0 6.855468 5.371094 12.460937 11.933594 12.460937h25.023437c-6.558593 0-11.929687-5.605469-11.929687-12.460937zm0 0" fill="#fdbd40"/><path d="m241.527344 71.085938c0-6.695313 5.371094-12.175782 11.929687-12.175782h-25.023437c-6.5625 0-11.933594 5.480469-11.933594 12.175782 0 6.695312 5.371094 12.171874 11.933594 12.171874h25.023437c-6.558593.003907-11.929687-5.476562-11.929687-12.171874zm0 0" fill="#fdbd40"/><path d="m124.578125 126.683594-108.066406 108.0625c-22.015625 22.019531-22.015625 58.042968 0 80.0625l1.617187 1.617187 188.125-188.128906-1.613281-1.613281c-22.019531-22.019532-58.046875-22.019532-80.0625 0zm0 0" fill="#ea5471"/><path d="m37.117188 234.746094 108.066406-108.0625c8.390625-8.390625 18.816406-13.574219 29.726562-15.570313-17.714844-3.238281-36.707031 1.945313-50.332031 15.570313l-108.066406 108.0625c-22.015625 22.019531-22.015625 58.042968 0 80.0625l1.617187 1.617187 11.269532-11.269531c-13.878907-21.875-11.316407-51.375 7.71875-70.410156zm0 0" fill="#da1c4b"/><path d="m261.722656 263.828125-108.066406 108.066406c-20.644531 20.644531-56.117188 23.9375-81.675781-1.617187l188.125-188.125 1.617187 1.613281c22.015625 22.019531 22.015625 58.046875 0 80.0625zm0 0" fill="#ea5471"/><path d="m95.367188 368.660156 174.523437-174.519531c-2.265625-3.695313-4.976563-7.183594-8.167969-10.375l-1.613281-1.613281-188.128906 188.125c15.703125 15.703125 34.328125 20.609375 52.53125 17.082031-10.695313-2.070313-20.902344-7.226563-29.144531-15.464844-.890626-.894531-.890626-2.339843 0-3.234375zm0 0" fill="#da1c4b"/><path d="m33.257812 333.527344 190.097657-190.097656 21.59375 21.589843-190.101563 190.101563zm0 0" fill="#9c2d20"/><path d="m33.257812 333.527344 13.652344-13.652344 21.59375 21.589844-13.65625 13.65625zm0 0" fill="#8c271f"/><path d="m245.207031 163.304688-192.074219 192.074218c-4.640624 4.640625-4.472656 12.402344.375 17.246094 4.84375 4.847656 12.605469 5.015625 17.246094.375l192.074219-192.074219c4.640625-4.640625 4.472656-12.402343-.371094-17.25-4.847656-4.84375-12.609375-5.015625-17.25-.371093zm0 0" fill="#f98c96"/><path d="m71.378906 354.75c-3.820312-3.820312-5.230468-9.066406-4.105468-13.515625l-14.140626 14.140625c-4.640624 4.640625-4.472656 12.402344.375 17.25 4.84375 4.847656 12.605469 5.015625 17.246094.375l14.140625-14.140625c-4.445312 1.125-9.691406-.289063-13.515625-4.109375zm0 0" fill="#ea5471"/><path d="m207.886719 125.980469-192.078125 192.074219c-4.640625 4.640624-4.5625 12.3125.171875 17.046874 4.734375 4.734376 12.40625 4.8125 17.046875.171876l192.074218-192.074219c4.640626-4.640625 4.5625-12.3125-.171874-17.046875-4.734376-4.734375-12.402344-4.8125-17.042969-.171875zm0 0" fill="#f98c96"/><path d="m33.769531 317.316406c-3.632812-3.632812-5.125-8.53125-4.371093-12.851562l-13.589844 13.589844c-4.640625 4.640624-4.5625 12.3125.171875 17.046874 4.734375 4.734376 12.40625 4.8125 17.046875.171876l13.589844-13.589844c-4.320313.753906-9.21875-.738282-12.847657-4.367188zm0 0" fill="#ea5471"/></svg>