<svg height="610pt" viewBox="-157 -19 610 610.66355" width="610pt" xmlns="http://www.w3.org/2000/svg"><path d="m286.222656 147.589844c.003906-80.210938-64.054687-145.738282-144.242187-147.5507815-80.191407-1.8164065-147.152344 60.7499995-150.773438 140.8749995-3.621093 80.132813 57.414063 148.484376 137.445313 153.914063v267.679687c0 5.519532 4.46875 9.988282 9.988281 9.988282s9.992187-4.46875 9.992187-9.988282v-267.613281c35.464844-2.054687 68.945313-17.042969 94.097657-42.132812 28.023437-27.800781 43.695312-65.699219 43.492187-105.171875zm-77.679687-19.761719c-2.425781 1.070313-5.171875 1.136719-7.644531.179687-2.472657-.957031-4.460938-2.855468-5.53125-5.277343-8.117188-18.386719-24.601563-31.734375-44.28125-35.839844-3.515626-.695313-6.390626-3.226563-7.527344-6.628906-1.136719-3.398438-.363282-7.144531 2.023437-9.824219 2.386719-2.671875 6.027344-3.863281 9.535157-3.117188 26 5.414063 47.792968 23.039063 58.523437 47.335938 2.230469 5.042969-.058594 10.941406-5.101563 13.171875zm0 0"/></svg>