<svg height="472pt" viewBox="0 -100 472 472" width="472pt" xmlns="http://www.w3.org/2000/svg"><path d="m80 0h256c8.800781 0 16 7.199219 16 16v128h-288v-128c0-8.800781 7.199219-16 16-16zm0 0" fill="#f7d289"/><path d="m472 144v-24l-56-64h-64v88zm0 0" fill="#ddad6f"/><path d="m64 144h408v64c0 8.800781-7.199219 16-16 16h-376c-8.800781 0-16-7.199219-16-16zm0 0" fill="#878b9b"/><path d="m208 228c0 24.300781-19.699219 44-44 44s-44-19.699219-44-44 19.699219-44 44-44 44 19.699219 44 44zm0 0" fill="#4a4a56"/><path d="m416 228c0 24.300781-19.699219 44-44 44s-44-19.699219-44-44 19.699219-44 44-44 44 19.699219 44 44zm0 0" fill="#4a4a56"/><path d="m64 136h408v16h-408zm0 0" fill="#ddad6f"/><path d="m16 48h24v16h-24zm0 0" fill="#f7d289"/><path d="m146.457031 234.082031 23.855469-23.660156 11.269531 11.359375-23.855469 23.664062zm0 0" fill="#878b9b"/><path d="m354.460938 234.222656 23.757812-23.757812 11.3125 11.3125-23.757812 23.757812zm0 0" fill="#878b9b"/><path d="m8 72h32v16h-32zm0 0" fill="#f7d289"/><path d="m0 96h40v16h-40zm0 0" fill="#f7d289"/><path d="m184 32h48c8.800781 0 16 7.199219 16 16v48c0 8.800781-7.199219 16-16 16h-48c-8.800781 0-16-7.199219-16-16v-48c0-8.800781 7.199219-16 16-16zm0 0" fill="#2ab793"/><path d="m208 91.199219-21.601562-21.597657 11.203124-11.203124 10.398438 10.402343 42.398438-42.402343 11.203124 11.203124zm0 0" fill="#fff"/></svg>